<svg xmlns="http://www.w3.org/2000/svg" width="50" height="57.143" viewBox="0 0 50 57.143">
  <path id="Icon_awesome-book" data-name="Icon awesome-book" d="M50,40.179V2.679A2.672,2.672,0,0,0,47.321,0H10.714A10.717,10.717,0,0,0,0,10.714V46.429A10.717,10.717,0,0,0,10.714,57.143H47.321A2.672,2.672,0,0,0,50,54.464V52.679a2.7,2.7,0,0,0-.993-2.087,24.889,24.889,0,0,1,0-8.337A2.66,2.66,0,0,0,50,40.179ZM14.286,14.955a.672.672,0,0,1,.67-.67H38.616a.672.672,0,0,1,.67.67v2.232a.672.672,0,0,1-.67.67H14.955a.672.672,0,0,1-.67-.67Zm0,7.143a.672.672,0,0,1,.67-.67H38.616a.672.672,0,0,1,.67.67V24.33a.672.672,0,0,1-.67.67H14.955a.672.672,0,0,1-.67-.67ZM42.567,50H10.714a3.571,3.571,0,0,1,0-7.143H42.567A40.179,40.179,0,0,0,42.567,50Z" fill="#fff"/>
</svg>
