<svg xmlns="http://www.w3.org/2000/svg" viewBox="0 0 670.6 697.43"><defs><style>.cls-1{fill:#405d64;}.cls-14,.cls-2{fill:#96b3ba;}.cls-3{fill:#d69c96;}.cls-4{fill:#d0d9db;}.cls-11,.cls-13,.cls-17,.cls-5{fill:none;}.cls-5{stroke:#405d64;stroke-width:0.25px;}.cls-15,.cls-18,.cls-5{stroke-miterlimit:10;}.cls-15,.cls-18,.cls-6{fill:#fff;}.cls-7{fill:#f2d6d3;}.cls-8{fill:#d1b66f;}.cls-9{fill:#9c8280;}.cls-10{fill:#dbc2c0;}.cls-11{stroke:#96b3ba;stroke-width:2px;}.cls-11,.cls-13,.cls-17{stroke-linecap:round;stroke-linejoin:round;}.cls-12{fill:#695756;}.cls-13{stroke:#695756;}.cls-14{opacity:0.5;}.cls-15,.cls-17,.cls-18{stroke:#d0d9db;}.cls-16{fill:#899eaa;}.cls-18{stroke-width:0.5px;}</style></defs><g id="Lag_1" data-name="Lag 1"><path class="cls-1" d="M271,255.67h1.74a5.69,5.69,0,0,1,2,.26,2,2,0,0,1,1,.84,2.57,2.57,0,0,1,.37,1.4,2.38,2.38,0,0,1-.4,1.42,2.6,2.6,0,0,1-1.23.87l2,3.83h-1.79l-1.94-3.65h-.15v3.65H271Zm1.64,3.37h.51a2,2,0,0,0,1.08-.21.75.75,0,0,0,.29-.68.81.81,0,0,0-.14-.49.83.83,0,0,0-.39-.3,3.06,3.06,0,0,0-.9-.09h-.45Z"/><path class="cls-1" d="M277.84,255.67h4.71v1.61h-3.08v1.55h3.08v1.58h-3.08v2.27h3.08v1.61h-4.71Z"/><path class="cls-1" d="M292,257.08l-1.15,1.14a3.42,3.42,0,0,0-2.56-1.16,2.92,2.92,0,0,0-2.13.84,2.8,2.8,0,0,0-.86,2.05,2.85,2.85,0,0,0,.89,2.12,3,3,0,0,0,2.2.87,2.7,2.7,0,0,0,1.44-.36,2.52,2.52,0,0,0,.94-1.12h-2.5v-1.54h4.34v.36a4.24,4.24,0,0,1-.59,2.15,4.06,4.06,0,0,1-1.51,1.54,4.31,4.31,0,0,1-2.19.54,4.84,4.84,0,0,1-2.39-.59,4.3,4.3,0,0,1-1.67-1.66,4.6,4.6,0,0,1-.61-2.32,4.34,4.34,0,0,1,1.13-3,4.48,4.48,0,0,1,3.49-1.51,5.33,5.33,0,0,1,2.11.42A4.7,4.7,0,0,1,292,257.08Z"/><path class="cls-1" d="M294,255.67h1.63v8.62H294Z"/><path class="cls-1" d="M302,256.84l-1.22,1.07a1.74,1.74,0,0,0-1.3-.89.77.77,0,0,0-.53.18.49.49,0,0,0-.21.39.67.67,0,0,0,.15.41,10.37,10.37,0,0,0,1.2,1.1q.94.79,1.14,1a3.35,3.35,0,0,1,.71,1,2.36,2.36,0,0,1,.21,1,2.32,2.32,0,0,1-.73,1.75,2.65,2.65,0,0,1-1.92.7,2.76,2.76,0,0,1-1.6-.46,3.49,3.49,0,0,1-1.17-1.41l1.38-.84c.41.77.89,1.15,1.43,1.15a1,1,0,0,0,.71-.25.73.73,0,0,0,.29-.57.94.94,0,0,0-.22-.58,5.89,5.89,0,0,0-1-.9,9.85,9.85,0,0,1-1.82-1.77,2.29,2.29,0,0,1-.41-1.25,2,2,0,0,1,.69-1.54,2.38,2.38,0,0,1,1.68-.64,2.66,2.66,0,0,1,1.23.3A4.53,4.53,0,0,1,302,256.84Z"/><path class="cls-1" d="M302.9,255.67h4.77v1.62H306.1v7h-1.67v-7H302.9Z"/><path class="cls-1" d="M308.9,255.67h1.74a5.69,5.69,0,0,1,2,.26,2,2,0,0,1,1,.84,2.57,2.57,0,0,1,.37,1.4,2.38,2.38,0,0,1-.41,1.42,2.5,2.5,0,0,1-1.23.87l2.05,3.83h-1.8l-1.94-3.65h-.15v3.65H308.9Zm1.64,3.37h.52a2,2,0,0,0,1.08-.21.77.77,0,0,0,.29-.68.81.81,0,0,0-.15-.49.74.74,0,0,0-.39-.3,3,3,0,0,0-.9-.09h-.45Z"/><path class="cls-1" d="M315.76,255.67h4.7v1.61h-3.07v1.55h3.07v1.58h-3.07v2.27h3.07v1.61h-4.7Z"/><path class="cls-1" d="M322.1,255.67h1.74a5.75,5.75,0,0,1,2,.26,2,2,0,0,1,1,.84,2.57,2.57,0,0,1,.37,1.4,2.38,2.38,0,0,1-.41,1.42,2.52,2.52,0,0,1-1.22.87l2,3.83h-1.8l-1.93-3.65h-.15v3.65H322.1Zm1.65,3.37h.51a2,2,0,0,0,1.08-.21.77.77,0,0,0,.29-.68.88.88,0,0,0-.14-.49.81.81,0,0,0-.4-.3,2.94,2.94,0,0,0-.89-.09h-.45Z"/><path class="cls-1" d="M328.84,255.67h1.63v8.62h-1.63Z"/><path class="cls-1" d="M332.32,255.67h1.57l3.69,5.67v-5.67h1.64v8.62h-1.58L334,258.64v5.65h-1.64Z"/><path class="cls-1" d="M349.15,257.08,348,258.22a3.42,3.42,0,0,0-2.56-1.16,2.93,2.93,0,0,0-2.13.84,2.8,2.8,0,0,0-.86,2.05,2.85,2.85,0,0,0,.89,2.12,3,3,0,0,0,2.2.87,2.7,2.7,0,0,0,1.44-.36,2.52,2.52,0,0,0,.94-1.12h-2.5v-1.54h4.34v.36a4.15,4.15,0,0,1-.59,2.15,4.06,4.06,0,0,1-1.51,1.54,4.28,4.28,0,0,1-2.19.54,4.84,4.84,0,0,1-2.39-.59,4.3,4.3,0,0,1-1.67-1.66,4.7,4.7,0,0,1-.61-2.32,4.34,4.34,0,0,1,1.13-3,4.48,4.48,0,0,1,3.49-1.51,5.3,5.3,0,0,1,2.11.42A4.82,4.82,0,0,1,349.15,257.08Z"/><path class="cls-1" d="M355.79,256.84l-1.21,1.07a1.75,1.75,0,0,0-1.31-.89.79.79,0,0,0-.53.18.5.5,0,0,0-.2.39.72.72,0,0,0,.14.41,12,12,0,0,0,1.21,1.1l1.14,1a3.49,3.49,0,0,1,.7,1,2.36,2.36,0,0,1,.21,1,2.29,2.29,0,0,1-.73,1.75,2.65,2.65,0,0,1-1.91.7,2.79,2.79,0,0,1-1.61-.46,3.65,3.65,0,0,1-1.17-1.41l1.38-.84c.42.77.89,1.15,1.43,1.15a1,1,0,0,0,.71-.25.7.7,0,0,0,.29-.57.94.94,0,0,0-.22-.58,5.69,5.69,0,0,0-.95-.9,9.53,9.53,0,0,1-1.82-1.77,2.21,2.21,0,0,1-.41-1.25,2,2,0,0,1,.68-1.54,2.42,2.42,0,0,1,1.69-.64,2.66,2.66,0,0,1,1.23.3A4.38,4.38,0,0,1,355.79,256.84Z"/><path class="cls-1" d="M357.52,255.67h1.66v3l2.34-3h2l-3,3.85,3.3,4.77h-1.95l-2.65-3.83v3.83h-1.66Z"/><path class="cls-1" d="M364.89,255.67h1.65v5.57a3,3,0,0,0,.12,1,1,1,0,0,0,.42.48,1.3,1.3,0,0,0,.7.18,1.4,1.4,0,0,0,.75-.2,1.06,1.06,0,0,0,.43-.51,3.7,3.7,0,0,0,.12-1.17v-5.37h1.65v5.14a7.19,7.19,0,0,1-.15,1.8,2.58,2.58,0,0,1-.56,1,2.64,2.64,0,0,1-.95.69,3.26,3.26,0,0,1-1.26.23,3.09,3.09,0,0,1-1.63-.43,2.55,2.55,0,0,1-1-1.08,5.67,5.67,0,0,1-.3-2.19Z"/><path class="cls-1" d="M372.74,255.67h1.74a5.69,5.69,0,0,1,2,.26,2,2,0,0,1,1,.84,2.66,2.66,0,0,1,.37,1.4,2.38,2.38,0,0,1-.41,1.42,2.5,2.5,0,0,1-1.23.87l2,3.83h-1.79l-1.94-3.65h-.15v3.65h-1.64Zm1.64,3.37h.52a1.93,1.93,0,0,0,1.07-.21.75.75,0,0,0,.3-.68.81.81,0,0,0-.15-.49.78.78,0,0,0-.39-.3,3,3,0,0,0-.9-.09h-.45Z"/><path class="cls-1" d="M384.11,256.84l-1.21,1.07a1.74,1.74,0,0,0-1.3-.89.77.77,0,0,0-.53.18.49.49,0,0,0-.21.39.67.67,0,0,0,.15.41,10.37,10.37,0,0,0,1.2,1.1q.94.79,1.14,1a3.55,3.55,0,0,1,.71,1,2.36,2.36,0,0,1,.21,1,2.3,2.3,0,0,1-.74,1.75,2.61,2.61,0,0,1-1.91.7,2.76,2.76,0,0,1-1.6-.46,3.49,3.49,0,0,1-1.17-1.41l1.38-.84c.41.77.89,1.15,1.43,1.15a1,1,0,0,0,.71-.25.73.73,0,0,0,.29-.57,1,1,0,0,0-.22-.58,6.36,6.36,0,0,0-1-.9,9.85,9.85,0,0,1-1.82-1.77,2.29,2.29,0,0,1-.41-1.25,2.07,2.07,0,0,1,.68-1.54,2.42,2.42,0,0,1,1.69-.64,2.66,2.66,0,0,1,1.23.3A4.38,4.38,0,0,1,384.11,256.84Z"/><path class="cls-1" d="M385.84,255.67h4.7v1.61h-3.07v1.55h3.07v1.58h-3.07v2.27h3.07v1.61h-4.7Z"/><path class="cls-1" d="M392.18,255.67h1.74a5.69,5.69,0,0,1,2,.26,2,2,0,0,1,1,.84,2.66,2.66,0,0,1,.37,1.4,2.38,2.38,0,0,1-.41,1.42,2.5,2.5,0,0,1-1.23.87l2,3.83h-1.8L394,260.64h-.15v3.65h-1.64Zm1.64,3.37h.52a2,2,0,0,0,1.08-.21.77.77,0,0,0,.29-.68.81.81,0,0,0-.15-.49.74.74,0,0,0-.39-.3,3,3,0,0,0-.9-.09h-.45Z"/><path class="cls-1" d="M539.59,412.83a4.77,4.77,0,0,1,3.52,1.48,5.13,5.13,0,0,1,0,7.17,5,5,0,0,1-7.13,0,5,5,0,0,1-1.43-3.56,5,5,0,0,1,.67-2.54,5,5,0,0,1,1.83-1.84A5,5,0,0,1,539.59,412.83Zm0,1.79a3,3,0,0,0-2.24.93,3.23,3.23,0,0,0-.91,2.36,3.09,3.09,0,0,0,1.14,2.53,3.19,3.19,0,0,0,2.05.72,3,3,0,0,0,2.22-.94,3.41,3.41,0,0,0,0-4.65A3,3,0,0,0,539.57,414.62Z"/><path class="cls-1" d="M546.31,413.07h1.76l4.12,6.33v-6.33H554v9.63h-1.76l-4.12-6.32v6.32h-1.83Z"/><path class="cls-1" d="M556.22,413.07h1.83V421h2.67v1.75h-4.5Z"/><path class="cls-1" d="M562,413.07h1.82v9.63H562Z"/><path class="cls-1" d="M565.87,413.07h1.76l4.12,6.33v-6.33h1.83v9.63h-1.76l-4.12-6.32v6.32h-1.83Z"/><path class="cls-1" d="M575.79,413.07H581v1.79H577.6v1.74H581v1.76H577.6v2.54H581v1.8h-5.25Z"/><rect class="cls-2" x="462.37" y="277.92" width="14.26" height="2.42" rx="1.11"/><path class="cls-1" d="M534.57,434.88h1.75v7.53h2.55v1.67h-4.3Z"/><path class="cls-1" d="M544,434.88h6v1.71h-3.24v1.67H550v1.68h-3.24v2.42H550v1.72h-5v-1.9h-2.8l-.93,1.9h-1.8Zm1,5.58v-4l-2,4Z"/><path class="cls-1" d="M551.85,434.88h1.86a6.19,6.19,0,0,1,2.17.27,2.21,2.21,0,0,1,1,.9,2.79,2.79,0,0,1,.39,1.5,2.52,2.52,0,0,1-.43,1.51,2.65,2.65,0,0,1-1.31.93l2.18,4.09h-1.92l-2.07-3.9h-.16v3.9h-1.75Zm1.75,3.59h.55a2.1,2.1,0,0,0,1.15-.22.81.81,0,0,0,.32-.72,1,1,0,0,0-.16-.53.85.85,0,0,0-.42-.32,3.26,3.26,0,0,0-1-.1h-.48Z"/><path class="cls-1" d="M559,434.88h1.74v9.2H559Z"/><path class="cls-1" d="M562.75,434.88h1.68l3.94,6.05v-6.05h1.75v9.2h-1.68l-3.94-6v6h-1.75Z"/><path class="cls-1" d="M580.72,436.38l-1.24,1.22a3.63,3.63,0,0,0-2.73-1.24,3.11,3.11,0,0,0-2.27.9,3,3,0,0,0-.92,2.19,3.05,3.05,0,0,0,1,2.26,3.28,3.28,0,0,0,2.35.92,2.8,2.8,0,0,0,1.53-.38,2.67,2.67,0,0,0,1-1.19h-2.67v-1.65h4.63v.39a4.58,4.58,0,0,1-.62,2.29,4.43,4.43,0,0,1-1.62,1.65,4.64,4.64,0,0,1-2.34.57,5.23,5.23,0,0,1-2.55-.62,4.61,4.61,0,0,1-1.78-1.78,5,5,0,0,1-.65-2.48,4.59,4.59,0,0,1,1.21-3.18,4.74,4.74,0,0,1,3.72-1.6,5.64,5.64,0,0,1,2.25.44A5.2,5.2,0,0,1,580.72,436.38Z"/><path class="cls-1" d="M587.81,436.13l-1.3,1.14a1.84,1.84,0,0,0-1.39-.95.79.79,0,0,0-.56.19.52.52,0,0,0-.22.41.73.73,0,0,0,.15.44,11.35,11.35,0,0,0,1.29,1.18c.67.56,1.07.91,1.21,1.06a3.61,3.61,0,0,1,.76,1,2.53,2.53,0,0,1,.22,1.07,2.45,2.45,0,0,1-.78,1.87,2.86,2.86,0,0,1-2,.74,3.07,3.07,0,0,1-1.72-.48,3.79,3.79,0,0,1-1.24-1.52l1.47-.88c.44.81,1,1.22,1.53,1.22a1.08,1.08,0,0,0,.75-.27.75.75,0,0,0,.31-.6,1.09,1.09,0,0,0-.23-.63,7.21,7.21,0,0,0-1-1,9.6,9.6,0,0,1-1.94-1.89,2.34,2.34,0,0,1-.44-1.33,2.16,2.16,0,0,1,.73-1.64,2.49,2.49,0,0,1,1.8-.68,2.87,2.87,0,0,1,1.31.31A5.17,5.17,0,0,1,587.81,436.13Z"/><path class="cls-1" d="M589.67,434.88h4.56v1.7H591.4v1.67h2.83v1.69H591.4v4.14h-1.73Z"/><path class="cls-1" d="M595.66,434.88h1.74v9.2h-1.74Z"/><path class="cls-1" d="M599.37,434.88h1.75v7.53h2.56v1.67h-4.31Z"/><path class="cls-1" d="M605.9,434.88h1.71l2.13,6.41,2.15-6.41h1.71l1.54,9.2h-1.69l-1-5.81-2,5.81H609L607,438.27l-1,5.81h-1.7Z"/><path class="cls-1" d="M590.42,327.83h23.83V316H508v11.8h10.71a1.73,1.73,0,0,1,1.73,1.72v35.58a1.73,1.73,0,0,1-1.73,1.72H508v11.8H614.25v-11.8H590.42a1.73,1.73,0,0,1-1.73-1.72V329.55A1.73,1.73,0,0,1,590.42,327.83ZM604,320.46a1.19,1.19,0,0,1,1.2-1.19h1.49a1.19,1.19,0,0,1,1.19,1.19v3a1.19,1.19,0,0,1-1.19,1.19h-1.49a1.19,1.19,0,0,1-1.2-1.19Zm-12.79,0a1.19,1.19,0,0,1,1.19-1.19h1.49a1.19,1.19,0,0,1,1.19,1.19v3a1.19,1.19,0,0,1-1.19,1.19h-1.49a1.19,1.19,0,0,1-1.19-1.19Zm-72.91,2.95a1.19,1.19,0,0,1-1.19,1.19h-1.49a1.19,1.19,0,0,1-1.19-1.19v-3a1.19,1.19,0,0,1,1.19-1.19h1.49a1.19,1.19,0,0,1,1.19,1.19Zm0,50.82a1.19,1.19,0,0,1-1.19,1.19h-1.49a1.19,1.19,0,0,1-1.19-1.19v-3a1.19,1.19,0,0,1,1.19-1.19h1.49a1.19,1.19,0,0,1,1.19,1.19Zm85.7-2.94a1.2,1.2,0,0,1,1.2-1.19h1.49a1.2,1.2,0,0,1,1.19,1.19v3a1.19,1.19,0,0,1-1.19,1.19h-1.49a1.19,1.19,0,0,1-1.2-1.19Zm-12.79,0a1.19,1.19,0,0,1,1.19-1.19h1.49a1.19,1.19,0,0,1,1.19,1.19v3a1.19,1.19,0,0,1-1.19,1.19h-1.49a1.19,1.19,0,0,1-1.19-1.19Zm-12.8-50.82a1.19,1.19,0,0,1,1.19-1.2h1.49a1.19,1.19,0,0,1,1.19,1.2v3a1.19,1.19,0,0,1-1.19,1.19h-1.49a1.19,1.19,0,0,1-1.19-1.19Zm-12.8,0a1.19,1.19,0,0,1,1.2-1.19h1.49a1.19,1.19,0,0,1,1.19,1.19v2.95a1.19,1.19,0,0,1-1.19,1.19h-1.49a1.19,1.19,0,0,1-1.2-1.19Zm-12.79,0a1.19,1.19,0,0,1,1.19-1.19h1.49a1.19,1.19,0,0,1,1.19,1.19v3a1.19,1.19,0,0,1-1.19,1.19H554a1.19,1.19,0,0,1-1.19-1.19Zm-12.8,0a1.2,1.2,0,0,1,1.19-1.2h1.49a1.2,1.2,0,0,1,1.2,1.2v2.95a1.19,1.19,0,0,1-1.2,1.19h-1.49A1.19,1.19,0,0,1,540,323.4Zm-12.79,0a1.19,1.19,0,0,1,1.19-1.19h1.49a1.19,1.19,0,0,1,1.19,1.19v2.95a1.19,1.19,0,0,1-1.19,1.19h-1.49a1.19,1.19,0,0,1-1.19-1.19Zm3.87,53.78a1.19,1.19,0,0,1-1.19,1.19h-1.49a1.19,1.19,0,0,1-1.19-1.19v-3a1.19,1.19,0,0,1,1.19-1.2h1.49a1.19,1.19,0,0,1,1.19,1.2Zm12.8,0a1.2,1.2,0,0,1-1.2,1.2h-1.49a1.2,1.2,0,0,1-1.19-1.2v-3a1.19,1.19,0,0,1,1.19-1.19h1.49a1.19,1.19,0,0,1,1.2,1.19Zm12.79,0a1.19,1.19,0,0,1-1.19,1.19H554a1.19,1.19,0,0,1-1.19-1.19v-3a1.19,1.19,0,0,1,1.19-1.19h1.49a1.19,1.19,0,0,1,1.19,1.19Zm12.8,0a1.2,1.2,0,0,1-1.19,1.19h-1.49a1.2,1.2,0,0,1-1.2-1.19v-3a1.19,1.19,0,0,1,1.2-1.19h1.49a1.19,1.19,0,0,1,1.19,1.19Zm12.79,0a1.19,1.19,0,0,1-1.19,1.2h-1.49a1.19,1.19,0,0,1-1.19-1.2v-3a1.19,1.19,0,0,1,1.19-1.19h1.49a1.19,1.19,0,0,1,1.19,1.19Zm2.94-9.1a1.72,1.72,0,0,1-1.73,1.72H525.67a1.72,1.72,0,0,1-1.73-1.72V329.55a1.72,1.72,0,0,1,1.73-1.72h57.79a1.72,1.72,0,0,1,1.73,1.72Z"/><path class="cls-3" d="M530.07,347.24c1.84-.25,4-.4,6.09-.86a18.23,18.23,0,0,1,9.44.7,14,14,0,0,0,8.76.1,21.15,21.15,0,0,1,12.18-.37,25.62,25.62,0,0,0,4.18.35,14.14,14.14,0,0,0-1.32.93,34.83,34.83,0,0,0-3.29,3.13c-4.52,5.3-10.35,7.36-17.15,7a19.63,19.63,0,0,1-14.45-6.81A58.76,58.76,0,0,0,530.07,347.24Z"/><path class="cls-3" d="M529.13,346.08c3.31-3,6.56-6,10-8.88a39.3,39.3,0,0,1,5.09-3.31,5.1,5.1,0,0,1,1.66-.51,2.91,2.91,0,0,1,3.16,1.15,1.33,1.33,0,0,0,2.33.09,3,3,0,0,1,4-1,25.92,25.92,0,0,1,5.39,3.16c2.91,2.35,5.61,5,8.4,7.46.69.63,1.4,1.24,2.34,2.07a35.81,35.81,0,0,1-3.77-.19,37,37,0,0,1-9.07-2.35,5.49,5.49,0,0,0-4.3,0,12.05,12.05,0,0,1-8.35,0,5.6,5.6,0,0,0-4.31,0,36.56,36.56,0,0,1-9,2.32,34.7,34.7,0,0,1-3.55.21Z"/><path class="cls-1" d="M572.15,363.84l-.48.48L559,351.26c-.06-.06,0-.12.05-.05Z"/><path class="cls-4" d="M573.28,374.85h25.16a1.87,1.87,0,0,1,1.87,1.87v2.55a1.87,1.87,0,0,1-1.87,1.87H573.28a1.94,1.94,0,0,1-1.94-1.94v-2.41A1.94,1.94,0,0,1,573.28,374.85Z" transform="translate(732.79 1059.53) rotate(-135)"/><rect class="cls-4" x="572.2" y="366.2" width="4.88" height="1.22" transform="translate(721.6 1032.52) rotate(-135)"/><rect class="cls-4" x="592.17" y="391.31" width="16.15" height="2.2" transform="translate(747.2 1094.32) rotate(-135)"/><path class="cls-4" d="M605.52,394.93h0a1.3,1.3,0,0,1,1.3,1.3v3.7a1.3,1.3,0,0,1-1.3,1.3h0a.51.51,0,0,1-.51-.51v-5.28a.51.51,0,0,1,.51-.51Z" transform="translate(752.87 1108.01) rotate(-135)"/><rect class="cls-1" x="581.45" y="372.79" width="4.63" height="6.3" transform="translate(730.72 1054.55) rotate(-135)"/><polygon class="cls-4" points="569.2 360.62 574.25 364.32 572.15 366.42 568.45 361.37 569.2 360.62"/><path class="cls-5" d="M608.42,396.14a1.3,1.3,0,0,0-1.84,0l-.53.53-9.19-9.2.07-.07a1.94,1.94,0,0,0,0-2.75l-9.3-9.3-3.27-3.27-5.22-5.22a1.86,1.86,0,0,0-2.65,0l-.47.47-2.39-2.39.63-.62-5.06-3.69-.18.18-9.93-9.6c-.06-.06-.11,0-.05.05l9.6,9.93-.18.18,3.69,5.06.62-.63,2.39,2.39-.47.47a1.86,1.86,0,0,0,0,2.65l5.22,5.22h0l3.27,3.27h0l9.3,9.3a1.94,1.94,0,0,0,2.75,0l.07-.07,9.2,9.19-.53.53a1.3,1.3,0,0,0,0,1.84c.5.51.77,0,1.28-.56l2.61-2.61C608.37,396.91,608.93,396.64,608.42,396.14Z"/><rect class="cls-1" x="444.34" y="283.01" width="68.84" height="137.12" rx="9.09"/><path class="cls-6" d="M449.11,290.47H508.4a1.74,1.74,0,0,1,1.74,1.74V410.09a1.72,1.72,0,0,1-1.72,1.72H449.08a1.72,1.72,0,0,1-1.72-1.72V292.21A1.74,1.74,0,0,1,449.11,290.47Z"/><path class="cls-4" d="M452.63,319.83h53.14A1.2,1.2,0,0,1,507,321v62.31a1.18,1.18,0,0,1-1.18,1.18H452.61a1.18,1.18,0,0,1-1.18-1.18V321A1.2,1.2,0,0,1,452.63,319.83Z"/><path class="cls-1" d="M462.79,289.92h32.48a0,0,0,0,1,0,0v.6a2.78,2.78,0,0,1-2.78,2.78H466.16a3.37,3.37,0,0,1-3.37-3.37v0A0,0,0,0,1,462.79,289.92Z"/><rect class="cls-2" x="485.26" y="287.18" width="2.21" height="2.21" rx="1.1"/><path class="cls-1" d="M462.35,336.11v-5.32h.84a4.48,4.48,0,0,1,1.06.09,1.45,1.45,0,0,1,.76.47,1.32,1.32,0,0,1,.16,1.36,1.52,1.52,0,0,1-.42.47,1.66,1.66,0,0,1,.71.57,1.45,1.45,0,0,1,.22.81,1.5,1.5,0,0,1-.23.81,1.38,1.38,0,0,1-.6.55,2.16,2.16,0,0,1-1,.19Zm1-4.36v1.12h.22a.84.84,0,0,0,.55-.15.53.53,0,0,0,.18-.42.48.48,0,0,0-.17-.4.75.75,0,0,0-.52-.15Zm0,2v1.36h.26a1.54,1.54,0,0,0,.85-.16.54.54,0,0,0,.22-.46.65.65,0,0,0-.26-.54,1.38,1.38,0,0,0-.86-.2Z"/><path class="cls-1" d="M469.16,330.65a2.66,2.66,0,0,1,1.94.82,2.73,2.73,0,0,1,.81,2,2.65,2.65,0,0,1-.8,2,2.76,2.76,0,0,1-3.93,0,2.73,2.73,0,0,1-.8-2,2.85,2.85,0,0,1,.37-1.41,2.82,2.82,0,0,1,1-1A2.71,2.71,0,0,1,469.16,330.65Zm0,1a1.68,1.68,0,0,0-1.24.52,1.77,1.77,0,0,0-.51,1.3,1.69,1.69,0,0,0,.64,1.4,1.72,1.72,0,0,0,1.13.4,1.61,1.61,0,0,0,1.22-.52,1.76,1.76,0,0,0,.51-1.28,1.78,1.78,0,0,0-.51-1.29A1.66,1.66,0,0,0,469.15,331.64Z"/><path class="cls-1" d="M472.34,330.79h2.94v1h-1v4.32h-1v-4.32h-1Z"/><path class="cls-1" d="M478.49,330.65a2.66,2.66,0,0,1,1.94.82,2.73,2.73,0,0,1,.81,2,2.65,2.65,0,0,1-.8,2,2.76,2.76,0,0,1-3.93,0,2.73,2.73,0,0,1-.8-2,2.85,2.85,0,0,1,.37-1.41,2.82,2.82,0,0,1,1-1A2.71,2.71,0,0,1,478.49,330.65Zm0,1a1.68,1.68,0,0,0-1.24.52,1.77,1.77,0,0,0-.51,1.3,1.69,1.69,0,0,0,.64,1.4,1.72,1.72,0,0,0,1.13.4,1.61,1.61,0,0,0,1.22-.52,1.76,1.76,0,0,0,.51-1.28,1.78,1.78,0,0,0-.51-1.29A1.66,1.66,0,0,0,478.48,331.64Z"/><path class="cls-1" d="M481.85,330.79H483l1.12,1.71,1.12-1.71h1.14l-1.69,2.58,1.79,2.74h-1.13l-1.23-1.87-1.22,1.87h-1.15l1.8-2.75Z"/><path class="cls-1" d="M462.35,346.41H465v1h-1.63v1H465v1h-1.63v2.4h-1Z"/><path class="cls-1" d="M465.82,346.41h1v5.32h-1Z"/><path class="cls-1" d="M468,346.41h1v4.35h1.47v1H468Z"/><path class="cls-1" d="M471.22,346.41h1v4.35h1.48v1h-2.49Z"/><path class="cls-1" d="M474.48,346.41h2.91v1h-1.9v1h1.9v1h-1.9v1.4h1.9v1h-2.91Z"/><path class="cls-1" d="M478.4,346.41h1.07a3.73,3.73,0,0,1,1.26.15,1.28,1.28,0,0,1,.6.53,1.6,1.6,0,0,1,.23.86,1.37,1.37,0,0,1-1,1.41l1.26,2.37H480.7l-1.19-2.26h-.1v2.26h-1Zm1,2.08h.32a1.33,1.33,0,0,0,.67-.13.48.48,0,0,0,.18-.42.49.49,0,0,0-.09-.3.5.5,0,0,0-.24-.19,1.75,1.75,0,0,0-.56-.06h-.28Z"/><path class="cls-1" d="M464.4,361.24h1l2.05,5.32h-1.06l-.41-1.09h-2.17l-.44,1.09h-1Zm.52,1.41-.71,1.83h1.42Z"/><path class="cls-1" d="M467,361.24h1l1.34,3.78,1.36-3.78h1l-1.92,5.32h-1Z"/><path class="cls-1" d="M473.58,361.24h1l2,5.32h-1l-.42-1.09H473l-.43,1.09h-1.05Zm.52,1.41-.71,1.83h1.42Z"/><path class="cls-1" d="M477.44,361.24h1l2.28,3.5v-3.5h1v5.32h-1l-2.27-3.49v3.49h-1Z"/><path class="cls-1" d="M487.8,362l-.7.68a2.21,2.21,0,0,0-1.63-.76,1.78,1.78,0,0,0-1.81,1.8,2,2,0,0,0,.23.95,1.79,1.79,0,0,0,.66.65,2,2,0,0,0,.94.23,1.91,1.91,0,0,0,.8-.16,2.93,2.93,0,0,0,.81-.6l.68.71a3.64,3.64,0,0,1-1.11.8,3,3,0,0,1-1.2.22,2.77,2.77,0,0,1-2-.78,3,3,0,0,1-.43-3.43,2.61,2.61,0,0,1,1-1,2.92,2.92,0,0,1,1.45-.37,3.07,3.07,0,0,1,1.26.27A3,3,0,0,1,487.8,362Z"/><path class="cls-1" d="M488.69,361.24h2.91v1h-1.9v1h1.9v1h-1.9v1.4h1.9v1h-2.91Z"/><path class="cls-1" d="M492.61,361.24h1.07a3.68,3.68,0,0,1,1.26.16,1.31,1.31,0,0,1,.6.52,1.64,1.64,0,0,1,.23.87,1.49,1.49,0,0,1-.25.87,1.51,1.51,0,0,1-.76.54l1.26,2.36h-1.11l-1.19-2.25h-.1v2.25h-1Zm1,2.08h.32a1.35,1.35,0,0,0,.67-.12.5.5,0,0,0,.18-.43.53.53,0,0,0-.09-.3.48.48,0,0,0-.24-.18,1.79,1.79,0,0,0-.56-.06h-.28Z"/><path class="cls-1" d="M496.84,361.24h2.91v1h-1.9v1h1.9v1h-1.9v1.4h1.9v1h-2.91Z"/><path class="cls-1" d="M500.17,361.24h2.94v1h-1v4.32h-1v-4.32h-.94Z"/><path class="cls-1" d="M462.35,370H465v1h-1.63v1H465v1h-1.63v2.4h-1Z"/><path class="cls-1" d="M465.82,370h1v5.32h-1Z"/><path class="cls-1" d="M468,370h1v4.35h1.47v1H468Z"/><path class="cls-1" d="M471.22,370h1v4.35h1.48v1h-2.49Z"/><path class="cls-1" d="M474.48,370h2.91v1h-1.9v1h1.9v1h-1.9v1.4h1.9v1h-2.91Z"/><path class="cls-1" d="M478.4,370h1.07a3.44,3.44,0,0,1,1.26.16,1.21,1.21,0,0,1,.6.52,1.6,1.6,0,0,1,.23.86,1.37,1.37,0,0,1-1,1.41l1.26,2.37H480.7l-1.19-2.26h-.1v2.26h-1Zm1,2.08h.32a1.23,1.23,0,0,0,.67-.13.47.47,0,0,0,.18-.42.49.49,0,0,0-.09-.3.5.5,0,0,0-.24-.19,1.83,1.83,0,0,0-.56-.05h-.28Z"/><circle class="cls-1" cx="457.1" cy="333.45" r="1.17"/><circle class="cls-1" cx="457.1" cy="349.07" r="1.17"/><circle class="cls-1" cx="457.1" cy="363.76" r="1.17"/><path class="cls-1" d="M290.91,587.67h4.78v1.79h-3v1.76h3V593h-3v4.34h-1.82Z"/><path class="cls-1" d="M297.19,587.67H299v9.65h-1.83Z"/><path class="cls-1" d="M301.09,587.67h1.76L307,594v-6.35h1.83v9.65h-1.76L302.93,591v6.33h-1.84Z"/><path class="cls-1" d="M314,587.67h1.86l3.71,9.65h-1.91l-.75-2h-3.94l-.78,2h-1.91Zm.94,2.56-1.29,3.31h2.58Z"/><path class="cls-1" d="M321,587.67h1.76l4.13,6.35v-6.35h1.83v9.65h-1.76L322.8,591v6.33H321Z"/><path class="cls-1" d="M336,589l-1.36,1.2a1.92,1.92,0,0,0-1.46-1,.87.87,0,0,0-.59.19.59.59,0,0,0-.23.44.83.83,0,0,0,.16.46,13.66,13.66,0,0,0,1.35,1.24c.7.58,1.13,1,1.28,1.11a3.9,3.9,0,0,1,.79,1.07,2.82,2.82,0,0,1,.23,1.13,2.57,2.57,0,0,1-.82,2,3,3,0,0,1-2.14.77,3.24,3.24,0,0,1-1.8-.5,4.18,4.18,0,0,1-1.31-1.59l1.55-.93c.46.85,1,1.28,1.6,1.28a1.17,1.17,0,0,0,.8-.28.82.82,0,0,0,.32-.63,1.07,1.07,0,0,0-.25-.66,6.47,6.47,0,0,0-1.07-1,10.48,10.48,0,0,1-2-2,2.48,2.48,0,0,1-.46-1.39,2.27,2.27,0,0,1,.76-1.72,2.65,2.65,0,0,1,1.89-.72,2.87,2.87,0,0,1,1.37.34A5,5,0,0,1,336,589Z"/><path class="cls-1" d="M337.74,587.67h1.82v9.65h-1.82Z"/><path class="cls-1" d="M341.64,587.67h5.26v1.8h-3.44v1.75h3.44V593h-3.44v2.54h3.44v1.8h-5.26Z"/><path class="cls-1" d="M348.74,587.67h1.94A6.41,6.41,0,0,1,353,588a2.33,2.33,0,0,1,1.09.95,2.84,2.84,0,0,1,.41,1.56,2.67,2.67,0,0,1-.45,1.59,2.77,2.77,0,0,1-1.38,1l2.29,4.29h-2l-2.17-4.09h-.17v4.09h-1.83Zm1.83,3.77h.58a2.21,2.21,0,0,0,1.21-.23.85.85,0,0,0,.33-.76.94.94,0,0,0-.17-.55.86.86,0,0,0-.44-.33,3.12,3.12,0,0,0-1-.11h-.51Z"/><path class="cls-1" d="M356.27,587.67h1.83v9.65h-1.83Z"/><path class="cls-1" d="M360.17,587.67h1.76l4.13,6.35v-6.35h1.83v9.65h-1.76L362,591v6.33h-1.83Z"/><path class="cls-1" d="M379,589.25l-1.29,1.28a3.81,3.81,0,0,0-2.86-1.3,3.27,3.27,0,0,0-2.39.94,3.26,3.26,0,0,0,0,4.66,3.37,3.37,0,0,0,2.46,1,3.06,3.06,0,0,0,1.6-.4,2.85,2.85,0,0,0,1.06-1.26h-2.8v-1.72h4.86v.4a4.67,4.67,0,0,1-.66,2.4,4.56,4.56,0,0,1-1.69,1.74,4.94,4.94,0,0,1-2.45.59,5.4,5.4,0,0,1-2.68-.65,4.75,4.75,0,0,1-1.86-1.86,5.14,5.14,0,0,1-.69-2.6,4.84,4.84,0,0,1,1.27-3.33,5,5,0,0,1,3.91-1.69,5.94,5.94,0,0,1,2.35.47A5.31,5.31,0,0,1,379,589.25Z"/><path class="cls-7" d="M274.25,520.56a6.33,6.33,0,0,1-4.07-1.72c-3.14-2.7-3.28-6.82-.33-10.25a11.2,11.2,0,0,1,2.29-2,6,6,0,0,0-2.46,0c-4.55.92-7.56,6.82-7.58,6.88a1,1,0,0,1-1.84-.92c.13-.28,3.47-6.85,9-8a8.33,8.33,0,0,1,5.36.73,11.62,11.62,0,0,1,12,2.16,1,1,0,0,1-1.34,1.56A9.41,9.41,0,0,0,277,506.7c.19.14.37.29.56.45,4.25,3.65,3.67,8.17,1.22,11A5.94,5.94,0,0,1,274.25,520.56Zm.3-13a10.07,10.07,0,0,0-3.14,2.39c-1.74,2-2.62,5,.11,7.36,2.08,1.78,3.87,1.64,5.65-.43s2.39-5.23-1-8.14A12.75,12.75,0,0,0,274.55,507.53Z"/><path class="cls-7" d="M392.33,512.44h-2.48a33.5,33.5,0,0,0-9.34-16.32l10.21-12.87-1.14-.91a12.2,12.2,0,0,0-17.13,2l-3.54,4.47c-.59-.22-1.19-.43-1.79-.62l5-6.28L371,481a12.17,12.17,0,0,0-17.12,2l-2.94,3.7H316.74a33.6,33.6,0,0,0-33.6,33.61h0a33.61,33.61,0,0,0,21.66,31.41v10.6a6.46,6.46,0,0,0,6.46,6.46h6.27a4.86,4.86,0,0,0,4.86-4.86v-10h24.1v8.41a6.46,6.46,0,0,0,6.46,6.46h6.28a4.85,4.85,0,0,0,4.85-4.86V553.17A33.64,33.64,0,0,0,386.29,537h6A7.64,7.64,0,0,0,400,529.4v-9.32A7.64,7.64,0,0,0,392.33,512.44Z"/><rect class="cls-1" x="315.52" y="494.73" width="41.34" height="5.5" rx="2.75" transform="translate(672.39 994.96) rotate(-180)"/><path class="cls-8" d="M350.69,500.23a16.38,16.38,0,1,0-29,0Z"/><circle class="cls-9" cx="374.85" cy="512.44" r="3.11"/><circle class="cls-8" cx="347.13" cy="454.76" r="13.34"/><circle class="cls-8" cx="314.63" cy="442.68" r="9.52"/><circle class="cls-8" cx="336.22" cy="417.83" r="9.52"/><path class="cls-4" d="M319.9,186.48h33.47a19.57,19.57,0,0,1,19.57,19.57v28.56a0,0,0,0,1,0,0H300.6a0,0,0,0,1,0,0V205.78A19.3,19.3,0,0,1,319.9,186.48Z"/><path class="cls-6" d="M351.51,202.32l-13.83,28.46-12.54-28.1A24.91,24.91,0,0,1,323,192.55V184h30.71v8.93A21.63,21.63,0,0,1,351.51,202.32Z"/><path class="cls-7" d="M379,182.19c.67.34,1.41.53,2.07.89a5.89,5.89,0,0,1,1.44,1.14,12,12,0,0,1,1.9,3.1c.52,1.14,1,2.32,1.56,3.43s1.55,2.38,2.31,3.58c.09.15.18.3.26.45l.16.28a6.83,6.83,0,0,1,.92,3.52,11.82,11.82,0,0,1-.89,5c-.18.36-.74,1.22-.95,1.63-1.66,3.18.32,6.34,3.92,6.34h3.76a4.78,4.78,0,0,0,4.74-4.12c.1-.75.18-1.35.21-1.55a94.75,94.75,0,0,0,1.2-10.88,32.77,32.77,0,0,0-.71-9.31,9.72,9.72,0,0,0-.84-3.83,41.41,41.41,0,0,0-3.89-6.17,6.68,6.68,0,0,0-1.14-3.14,3.55,3.55,0,0,0-1.37-1.49c-.16-.09-.32-.18-.49-.26a7.66,7.66,0,0,0-.85-.46c-.83-.37-1.7-.68-2.56-1l-2.66-1.12a11.63,11.63,0,0,0-2.75-.95,2.9,2.9,0,0,0-.78,0,6.5,6.5,0,0,0-2.62-.87.89.89,0,0,0-.77.44c-.71,1.22.46,2.38,1.56,3,.81,1.51,2.42,2,4.09,2.2a6.85,6.85,0,0,1,2.68,3.42,11,11,0,0,0-6.39,3.39l-.09-.06c-1.31-.62-3.11-1.29-4.27,0S377.77,181.59,379,182.19Zm6.73-1.43s.15-.1.2-.13l.43-.25a10.12,10.12,0,0,1,1.73-.74.94.94,0,0,0-.37.5,1.49,1.49,0,0,0,.33,1.44,1.72,1.72,0,0,0,.25.46,3.36,3.36,0,0,1-2-.62,2.14,2.14,0,0,1-.59-.57S385.69,180.81,385.71,180.76Z"/><path class="cls-8" d="M316.9,111.08s-8.92-5.45-14.37,0-8.42,14.73-8.42,25.45,8.92,14.18,0,23.1,0,19.32,0,19.32,0-2.51,9.41-9.93,10.48-9.69,11.62-15.5S325.82,122.47,316.9,111.08Z"/><path class="cls-7" d="M325.72,155.21h23.91a0,0,0,0,1,0,0v30.93a11.71,11.71,0,0,1-11.71,11.71h0a12.2,12.2,0,0,1-12.2-12.2V155.21A0,0,0,0,1,325.72,155.21Z"/><rect class="cls-7" x="320.67" y="103.75" width="53.37" height="78.39" rx="25.51"/><rect class="cls-7" x="320.67" y="103.75" width="53.37" height="78.39" rx="25.51"/><circle class="cls-7" cx="318.91" cy="147.02" r="8.7"/><path class="cls-10" d="M354.49,159.35l-5.18-1.44a1,1,0,0,1-.67-1.2h0a1,1,0,0,1,1.19-.67l4.88,1.36a1.66,1.66,0,0,0,2.1-1.69l-.51-12.85a1,1,0,0,1,.92-1h0a1,1,0,0,1,1,.92l.53,13.17A3.38,3.38,0,0,1,354.49,159.35Z"/><path class="cls-4" d="M374,156.62v-3.86H330.59v24a25.37,25.37,0,0,0,15.59,5.33h2.35A25.51,25.51,0,0,0,374,156.62Z"/><path class="cls-4" d="M374,156.62v-3.86H330.59v24a25.37,25.37,0,0,0,15.59,5.33h2.35A25.51,25.51,0,0,0,374,156.62Z"/><polygon class="cls-4" points="320.01 136.58 320.01 139.63 331.65 156.55 333.25 155.45 320.18 136.46 320.01 136.58"/><path class="cls-4" d="M320.67,156.73c0,.87.05,1.74.13,2.6L331,173.93l1.6-1.1-11.91-17.12Z"/><path class="cls-9" d="M349.68,136a.63.63,0,0,1-.87.1,9.38,9.38,0,0,0-15,5.24.66.66,0,0,1-.74.52h0a.65.65,0,0,1-.52-.8,10.68,10.68,0,0,1,17-6,.65.65,0,0,1,.09.94Z"/><path class="cls-9" d="M374,136.69v-1.54a10.69,10.69,0,0,0-10.68-.16.65.65,0,0,0-.24.92.65.65,0,0,0,.88.21A9.39,9.39,0,0,1,374,136.69Z"/><path class="cls-11" d="M365.27,163.29a15.35,15.35,0,0,1-21.7,0"/><path class="cls-8" d="M317,139.25h0a10,10,0,0,0,8.88-5l1.75-3.31c3.21-6.08,10.08-7.15,17.63-7.15h17.4C380,123.78,380,107.7,380,107.7c0-4.59-4.19-8.32-9.36-8.32H333.18c-11.53,0-20.87,8.31-20.87,18.56V135.1A4.43,4.43,0,0,0,317,139.25Z"/><path class="cls-1" d="M389,152.29l-.35-.1,2.86-9.34s.05,0,0,0Z"/><path class="cls-4" d="M379.09,160.73h13.54a1,1,0,0,1,1,1v1.37a1,1,0,0,1-1,1H379.09a1,1,0,0,1-1-1v-1.3A1,1,0,0,1,379.09,160.73Z" transform="translate(122.89 488.16) rotate(-73.92)"/><rect class="cls-4" x="386.89" y="153.91" width="2.63" height="0.66" transform="translate(132.45 484.52) rotate(-73.92)"/><rect class="cls-4" x="378.46" y="172.36" width="8.69" height="1.18" transform="translate(110.57 492.86) rotate(-73.92)"/><path class="cls-4" d="M381.4,175.41h0a.7.7,0,0,1,.7.7v2a.7.7,0,0,1-.7.7h0a.27.27,0,0,1-.27-.27v-2.84a.27.27,0,0,1,.27-.27Z" transform="translate(105.72 494.71) rotate(-73.92)"/><rect class="cls-1" x="385.03" y="159.22" width="2.49" height="3.39" transform="translate(124.65 487.49) rotate(-73.92)"/><polygon class="cls-4" points="389.7 150.07 389.27 153.41 387.73 152.97 389.15 149.91 389.7 150.07"/><rect class="cls-6" x="352.39" y="212.96" width="12.77" height="3.3"/><path class="cls-7" d="M382,167.4a3.86,3.86,0,0,1,.77-1c.4-.31,1.57.41,2.32.51s3.48,1,3.48,1l.11,3-1,.51-1.92-.79s-2.49-.06-3.47-1.6S382,167.4,382,167.4Z"/><path class="cls-4" d="M394.35,232.61H380.26l6.81-30.42c.73-3.55,2.91-2.75,6.46-2l1.16.24c3.6.74,7.2,1.17,6.46,4.77Z"/><path class="cls-9" d="M319.45,229.8l-1.4-1.4-42.63-42.63c-2.25-2.25-5.16-1.52-7.41.73s-2.88,5.27-.63,7.52l42.52,42.52,1.41,1.41a5.06,5.06,0,0,0,7.15,0l1-1A5,5,0,0,0,319.45,229.8Z"/><ellipse class="cls-12" cx="316.3" cy="234.83" rx="5.56" ry="3.65" transform="translate(-69.28 315.56) rotate(-48.42)"/><path class="cls-7" d="M304.45,208.44a1.35,1.35,0,0,0-.64-.37.14.14,0,0,1-.08-.23h0a3,3,0,0,0-.76-2.91l-.45-.36a1.6,1.6,0,0,0-1-.36.14.14,0,0,1-.12-.2c.37-.69-.24-1.92-.87-2.43l-.32-.26a2.69,2.69,0,0,0-3.05-.16l-.2.25a1.56,1.56,0,0,0-.24-2.19s-1.91-1.27-5.26,1.13l-.53.47c-3.08,2.78-5.2,4.65-7.12,8.33-.52,1-1.35,3.17-1.35,3.17a24.89,24.89,0,0,0-.88,6.58v15.57a.15.15,0,0,0,.15.14h11.45a.14.14,0,0,0,.14-.14v-8.64c0-1.61,3.14-3.17,4.14-4.43,2.72-3.42,5.72-7.64,5.72-7.64C303.81,212.91,305.31,209.13,304.45,208.44Z"/><circle class="cls-12" cx="343.57" cy="144.82" r="2.93"/><circle class="cls-12" cx="318.45" cy="153.66" r="1.04"/><circle class="cls-12" cx="367.06" cy="144.62" r="2.93"/><line class="cls-13" x1="339.23" y1="143.26" x2="341.86" y2="144.62"/><line class="cls-13" x1="340.06" y1="141.68" x2="342.32" y2="143.6"/><line class="cls-13" x1="369.1" y1="144.16" x2="371.49" y2="142.42"/><line class="cls-13" x1="368.39" y1="143.8" x2="370.1" y2="141.38"/><path class="cls-14" d="M356.81,155.71a1.66,1.66,0,0,1-1.41,1.73,1,1,0,0,0-.79.88h0a1,1,0,0,0,1.12,1.14,3.39,3.39,0,0,0,3-3.53l-.13-3.17h-1.95Z"/><path class="cls-15" d="M366,113.65l-8.79-1.82a36.52,36.52,0,0,0-14.8,0l-8.79,1.82c-2.22,0-3.56-1.94-4.22-3.93l-4-14.34c-.36-1.57.69-2.35,2.44-3.07,0,0,11.89-4.32,21.88-4.32,10.52,0,22.1,4.32,22.1,4.32,1.77.75,2.8,1.5,2.43,3.07l-4,14.34C369.55,111.77,368.25,113.65,366,113.65Z"/><circle class="cls-3" cx="354.42" cy="99.17" r="6.03"/><polygon class="cls-6" points="358.54 98.17 355.42 98.17 355.42 95.06 353.42 95.06 353.42 98.17 350.3 98.17 350.3 100.17 353.42 100.17 353.42 103.29 355.42 103.29 355.42 100.17 358.54 100.17 358.54 98.17"/><path class="cls-1" d="M83.83,416.5H88.6v1.78H85.65V420H88.6v1.76H85.65v4.33H83.83Z"/><path class="cls-1" d="M93.17,416.5H95l3.7,9.62H96.82l-.75-2H92.15l-.79,2h-1.9Zm.93-3.67a1.34,1.34,0,0,1,1,.43,1.4,1.4,0,0,1,.42,1,1.41,1.41,0,0,1-.42,1,1.4,1.4,0,0,1-2,0,1.41,1.41,0,0,1-.42-1,1.4,1.4,0,0,1,.42-1A1.34,1.34,0,0,1,94.1,412.83Zm0,6.22-1.29,3.3h2.57Zm0-5.38a.52.52,0,0,0-.38.17.6.6,0,0,0-.16.41.61.61,0,0,0,.16.42.51.51,0,0,0,.76,0,.61.61,0,0,0,.16-.42.6.6,0,0,0-.16-.41A.52.52,0,0,0,94.1,413.67Z"/><path class="cls-1" d="M106.29,416.5h1.84v6.38a6.24,6.24,0,0,1-.25,2.14,2,2,0,0,1-.79,1,2.42,2.42,0,0,1-1.34.36A3.37,3.37,0,0,1,103,425l1.32-1.24a3.38,3.38,0,0,0,.75.67,1.27,1.27,0,0,0,.6.17.46.46,0,0,0,.43-.25,2.48,2.48,0,0,0,.15-1.09Z"/><path class="cls-1" d="M114.87,416.25a4.8,4.8,0,0,1,3.51,1.48,4.93,4.93,0,0,1,1.47,3.61,4.84,4.84,0,0,1-1.45,3.56,5,5,0,0,1-7.12,0,4.92,4.92,0,0,1-1.43-3.55,5,5,0,0,1,.66-2.54,5.05,5.05,0,0,1,4.36-2.52Zm0,1.8a3,3,0,0,0-2.25.93,3.21,3.21,0,0,0-.91,2.36,3.06,3.06,0,0,0,1.15,2.52,3.1,3.1,0,0,0,2,.73,3,3,0,0,0,2.22-.94,3.23,3.23,0,0,0,.92-2.33,3.19,3.19,0,0,0-.93-2.32A3,3,0,0,0,114.85,418.05Z"/><path class="cls-1" d="M121.58,426.12V416.5h1.51a7.57,7.57,0,0,1,1.93.17,2.54,2.54,0,0,1,1.37.85,2.22,2.22,0,0,1,.51,1.46,2.2,2.2,0,0,1-.23,1,2.57,2.57,0,0,1-.76.84,3.05,3.05,0,0,1,1.29,1,2.6,2.6,0,0,1,.4,1.46,2.71,2.71,0,0,1-.42,1.48,2.65,2.65,0,0,1-1.08,1,4.14,4.14,0,0,1-1.82.33Zm1.83-7.88v2h.4a1.45,1.45,0,0,0,1-.28,1,1,0,0,0,.33-.77.88.88,0,0,0-.31-.71,1.41,1.41,0,0,0-.94-.27Zm0,3.67v2.46h.46a2.89,2.89,0,0,0,1.54-.28,1,1,0,0,0,.39-.84,1.16,1.16,0,0,0-.46-1,2.58,2.58,0,0,0-1.55-.36Z"/><rect class="cls-16" x="333.82" y="89.3" width="2.96" height="518.83" transform="translate(344.78 -134.96) rotate(45)"/><rect class="cls-16" x="333.82" y="88.85" width="2.96" height="519.73" transform="translate(818.97 358.2) rotate(135)"/><path class="cls-1" d="M139.27,256.53a3,3,0,0,0-3.58,0L83.86,307.21v92.14h34.43V367.71a19.2,19.2,0,1,1,38.39,0v31.64H191.1V307.21Z"/><path class="cls-4" d="M103,308.44h1.85v3.32l2.62-3.32h2.2l-3.37,4.3,3.69,5.33h-2.17l-3-4.28v4.28H103Z"/><path class="cls-4" d="M115.87,308.2a4.77,4.77,0,0,1,3.52,1.48,5.13,5.13,0,0,1,0,7.17,5,5,0,0,1-7.13,0,5,5,0,0,1-1.43-3.56,5,5,0,0,1,2.5-4.37A4.87,4.87,0,0,1,115.87,308.2Zm0,1.79a3,3,0,0,0-2.24.93,3.23,3.23,0,0,0-.91,2.36,3.09,3.09,0,0,0,1.14,2.53,3.2,3.2,0,0,0,2,.73,3,3,0,0,0,2.22-1,3.41,3.41,0,0,0,0-4.65A3,3,0,0,0,115.85,310Z"/><path class="cls-4" d="M127.64,309.75l-1.36,1.2a1.92,1.92,0,0,0-1.46-1,1,1,0,0,0-.59.19.59.59,0,0,0-.23.44.77.77,0,0,0,.17.46,13.05,13.05,0,0,0,1.34,1.24c.7.58,1.12,1,1.27,1.1a3.87,3.87,0,0,1,.79,1.08,2.75,2.75,0,0,1-.58,3.08,3,3,0,0,1-2.14.77,3.16,3.16,0,0,1-1.79-.51,3.9,3.9,0,0,1-1.31-1.58l1.54-.93c.47.85,1,1.28,1.6,1.28a1.17,1.17,0,0,0,.8-.28.82.82,0,0,0,.32-.63,1.07,1.07,0,0,0-.25-.66,7.22,7.22,0,0,0-1.06-1,10.66,10.66,0,0,1-2-2,2.56,2.56,0,0,1-.46-1.39,2.3,2.3,0,0,1,.77-1.72,2.66,2.66,0,0,1,1.88-.71,3,3,0,0,1,1.37.33A5,5,0,0,1,127.64,309.75Z"/><path class="cls-4" d="M130.49,308.44h1.78l2.23,6.71,2.26-6.71h1.78l1.61,9.63h-1.77l-1-6.08-2,6.08h-1.62l-2-6.08-1,6.08h-1.79Z"/><path class="cls-4" d="M141.62,308.44h5.26v1.79h-3.44V312h3.44v1.76h-3.44v2.54h3.44v1.8h-5.26Z"/><path class="cls-4" d="M147.63,308.44H153v1.81H151.2v7.82h-1.86v-7.82h-1.71Z"/><path class="cls-4" d="M154.08,308.44h1.82v9.63h-1.82Z"/><path class="cls-4" d="M163,309.75l-1.35,1.2a1.93,1.93,0,0,0-1.46-1,.93.93,0,0,0-.59.19.59.59,0,0,0-.23.44.77.77,0,0,0,.17.46,12,12,0,0,0,1.34,1.24c.7.58,1.12,1,1.27,1.1a3.87,3.87,0,0,1,.79,1.08,2.78,2.78,0,0,1-.59,3.08,3,3,0,0,1-2.13.77,3.14,3.14,0,0,1-1.79-.51,3.9,3.9,0,0,1-1.31-1.58l1.54-.93c.46.85,1,1.28,1.6,1.28a1.14,1.14,0,0,0,.79-.28.79.79,0,0,0,.32-.63,1.12,1.12,0,0,0-.24-.66,7.46,7.46,0,0,0-1.07-1,10.52,10.52,0,0,1-2-2,2.48,2.48,0,0,1-.46-1.39,2.3,2.3,0,0,1,.77-1.72,2.65,2.65,0,0,1,1.88-.71,3,3,0,0,1,1.37.33A4.8,4.8,0,0,1,163,309.75Z"/><path class="cls-4" d="M164.94,308.44h1.86v3.32l2.61-3.32h2.2l-3.36,4.3,3.69,5.33h-2.18l-3-4.28v4.28h-1.86Z"/><path class="cls-4" d="M107.27,325.74h1.84v6.39a6.61,6.61,0,0,1-.24,2.14,2.07,2.07,0,0,1-.8,1,2.41,2.41,0,0,1-1.33.36,3.37,3.37,0,0,1-2.71-1.4l1.32-1.23a3.42,3.42,0,0,0,.74.67,1.31,1.31,0,0,0,.6.17.49.49,0,0,0,.44-.25,2.76,2.76,0,0,0,.14-1.1Z"/><path class="cls-4" d="M115.85,325.5a4.77,4.77,0,0,1,3.52,1.48,5.13,5.13,0,0,1,0,7.17,5,5,0,0,1-7.12,0,5.05,5.05,0,0,1,1.07-7.93A4.86,4.86,0,0,1,115.85,325.5Zm0,1.79a3,3,0,0,0-2.25.93,3.23,3.23,0,0,0-.91,2.36,3.09,3.09,0,0,0,1.14,2.53,3.2,3.2,0,0,0,2.05.73,3,3,0,0,0,2.22-.95,3.38,3.38,0,0,0,0-4.65A3,3,0,0,0,115.84,327.29Z"/><path class="cls-4" d="M122.57,335.37v-9.63h1.51a8.07,8.07,0,0,1,1.93.17,2.59,2.59,0,0,1,1.37.85,2.25,2.25,0,0,1,.51,1.47,2,2,0,0,1-.23,1,2.58,2.58,0,0,1-.76.85,2.91,2.91,0,0,1,1.29,1,2.6,2.6,0,0,1,.4,1.46,2.78,2.78,0,0,1-1.5,2.48,4.14,4.14,0,0,1-1.82.33Zm1.83-7.88v2h.4a1.44,1.44,0,0,0,1-.29.94.94,0,0,0,.33-.76.9.9,0,0,0-.31-.72,1.46,1.46,0,0,0-.94-.26Zm0,3.66v2.47h.46a2.87,2.87,0,0,0,1.54-.29,1,1,0,0,0,.39-.84,1.17,1.17,0,0,0-.46-1,2.58,2.58,0,0,0-1.55-.36Z"/><path class="cls-4" d="M130.34,335.37v-9.63h1.51a8.07,8.07,0,0,1,1.93.17,2.58,2.58,0,0,1,1.38.85,2.25,2.25,0,0,1,.51,1.47,2,2,0,0,1-.24,1,2.54,2.54,0,0,1-.75.85,2.94,2.94,0,0,1,1.28,1,2.6,2.6,0,0,1,.41,1.46,2.78,2.78,0,0,1-1.5,2.48,4.16,4.16,0,0,1-1.83.33Zm1.83-7.88v2h.4a1.49,1.49,0,0,0,1-.29,1,1,0,0,0,0-1.48,1.46,1.46,0,0,0-.94-.26Zm0,3.66v2.47h.46a2.85,2.85,0,0,0,1.54-.29,1,1,0,0,0,.4-.84,1.18,1.18,0,0,0-.47-1,2.56,2.56,0,0,0-1.55-.36Z"/><path class="cls-4" d="M141.05,325.74h1.86l3.7,9.63h-1.9l-.76-2H140l-.79,2h-1.9Zm.94,2.55-1.29,3.31h2.58Z"/><path class="cls-4" d="M148,325.74h1.75l4.12,6.33v-6.33h1.83v9.63H154l-4.11-6.32v6.32H148Z"/><path class="cls-4" d="M158,325.74h1.85v3.32l2.61-3.32h2.2l-3.36,4.3,3.69,5.33h-2.17l-3-4.28v4.28H158Z"/><path class="cls-16" d="M196.13,311l-58-58a.78.78,0,0,0-1.11,0L78.87,311a1.24,1.24,0,0,0,0,1.76L79,313a1.24,1.24,0,0,0,1.76,0l56.34-56.34a.59.59,0,0,1,.83,0l56.27,56.27a1.36,1.36,0,0,0,1.91,0A1.35,1.35,0,0,0,196.13,311Z"/><rect class="cls-7" x="75.71" y="382.46" width="3.08" height="18.89" rx="1.38"/><rect class="cls-7" x="70.31" y="382.46" width="3.08" height="18.89" rx="1.38"/><path class="cls-12" d="M70.31,399.85V400a1.38,1.38,0,0,0,1.38,1.38H72A1.38,1.38,0,0,0,73.38,400v-.12Z"/><path class="cls-12" d="M75.71,399.85V400a1.38,1.38,0,0,0,1.38,1.38h.32A1.38,1.38,0,0,0,78.79,400v-.12Z"/><path class="cls-3" d="M74.64,363.32h.31A5.07,5.07,0,0,1,80,368.4v19a.6.6,0,0,1-.6.6H70.17a.6.6,0,0,1-.6-.6v-19a5.07,5.07,0,0,1,5.07-5.07Z"/><path class="cls-13" d="M65.3,374.06a4.27,4.27,0,0,1,8.53,0"/><rect class="cls-7" x="67.69" y="366.98" width="3.08" height="9.01" rx="1.38"/><ellipse class="cls-7" cx="74.64" cy="357.88" rx="3.31" ry="3.88"/><path class="cls-12" d="M77.33,353.41H73.44a2.55,2.55,0,0,0-2.24,1.45,2.59,2.59,0,0,0-2-1.17,2.87,2.87,0,0,0-2.46,1.82c-.51,1.05-.07,2.2.21,3.33.14.57.56,2.21-.3,2.53a.2.2,0,0,0,0,.38c4.24,1.68,2.59-4,2.49-4.49-.19-.91,1-1.15,1.89-1.2,0,.95,0,3.16.5,3.16h.26c.34,0,.64-1.87.73-2.2a1.45,1.45,0,0,1,1.4-1.07h2.47c1.09,0,1.47-1.07,1.61-1.82A.61.61,0,0,0,77.33,353.41Z"/><rect class="cls-12" x="63.06" y="374.07" width="13.02" height="9.67" rx="2.23"/><rect class="cls-7" x="102.98" y="382.46" width="3.08" height="18.89" rx="1.38"/><rect class="cls-7" x="97.58" y="382.46" width="3.08" height="18.89" rx="1.38"/><path class="cls-12" d="M97.58,399.85V400A1.38,1.38,0,0,0,99,401.35h.31a1.38,1.38,0,0,0,1.38-1.38v-.12Z"/><path class="cls-12" d="M103,399.85V400a1.38,1.38,0,0,0,1.39,1.38h.31a1.38,1.38,0,0,0,1.38-1.38v-.12Z"/><path class="cls-9" d="M101.91,363.32h.31a5.07,5.07,0,0,1,5.07,5.07v19a.6.6,0,0,1-.6.6H97.44a.6.6,0,0,1-.6-.6v-19a5.07,5.07,0,0,1,5.07-5.07Z"/><path class="cls-17" d="M92.57,374.06a4.27,4.27,0,0,1,8.54,0"/><rect class="cls-7" x="94.96" y="366.98" width="3.08" height="9.01" rx="1.38"/><ellipse class="cls-7" cx="101.91" cy="357.88" rx="3.31" ry="3.88"/><path class="cls-8" d="M104.61,353.41h-3.9a2.54,2.54,0,0,0-2.23,1.45,2.62,2.62,0,0,0-2.06-1.17A2.88,2.88,0,0,0,94,355.51c-.5,1.05-.06,2.2.22,3.33.14.57.55,2.21-.31,2.53a.21.21,0,0,0,0,.38c4.24,1.68,2.59-4,2.49-4.49-.19-.91,1-1.15,1.89-1.2,0,.95,0,3.16.51,3.16H99c.35,0,.65-1.87.74-2.2a1.44,1.44,0,0,1,1.39-1.07h2.47c1.09,0,1.47-1.07,1.61-1.82A.61.61,0,0,0,104.61,353.41Z"/><circle class="cls-4" cx="98.6" cy="359.22" r="0.52"/><rect class="cls-4" x="90.33" y="374.07" width="13.02" height="9.67" rx="2.23"/><path class="cls-7" d="M228.35,382.62l-.33.21a1.71,1.71,0,0,1-2.37-.47l-7.77-12.8a1.72,1.72,0,0,1,.48-2.38l.32-.21a1.72,1.72,0,0,1,2.38.47l7.76,12.8A1.72,1.72,0,0,1,228.35,382.62Z"/><rect class="cls-7" x="221.36" y="387.75" width="3.81" height="23.41" rx="1.71" transform="translate(-70.27 48.39) rotate(-10.7)"/><rect class="cls-7" x="214.73" y="387.56" width="3.81" height="23.41" rx="1.71"/><ellipse class="cls-7" cx="220.42" cy="357.06" rx="4.1" ry="4.81"/><path class="cls-9" d="M223.76,351.51h-4.82a3.17,3.17,0,0,0-2.78,1.81,3.19,3.19,0,0,0-2.54-1.45,3.54,3.54,0,0,0-3.05,2.26c-.63,1.3-.08,2.72.26,4.12.18.7.7,2.73-.37,3.14a.25.25,0,0,0,0,.47c5.25,2.08,3.2-5,3.08-5.56-.24-1.14,1.25-1.43,2.34-1.49,0,1.17,0,3.91.63,3.91h.32c.42,0,.79-2.32.91-2.73a1.78,1.78,0,0,1,1.72-1.32h3.07c1.35,0,1.82-1.32,2-2.26A.76.76,0,0,0,223.76,351.51Z"/><path class="cls-2" d="M219.26,363.59h-.08c-3.32,0-6,4.78-6,10.67v20.32c0,.7.32,1.26.72,1.26h10.68c.39,0,.71-.56.71-1.26V374.26C225.27,368.37,222.58,363.59,219.26,363.59Z"/><path class="cls-12" d="M214.73,409.11v.15a1.72,1.72,0,0,0,1.72,1.71h.38a1.71,1.71,0,0,0,1.71-1.71v-.15Z"/><rect class="cls-6" x="218.54" y="370.28" width="2.87" height="0.74"/><path class="cls-12" d="M223.21,409.42l0,.14a1.72,1.72,0,0,0,1.94,1.46l.38-.06A1.7,1.7,0,0,0,227,409l0-.15Z"/><path class="cls-6" d="M222.65,353l-1.12-.23a4.63,4.63,0,0,0-1.89,0l-1.13.23c-.28,0-.45-.25-.53-.5l-.52-1.83c0-.2.09-.3.31-.39a9.71,9.71,0,0,1,2.8-.56,9.38,9.38,0,0,1,2.82.56c.23.09.36.19.31.39l-.51,1.83C223.1,352.8,222.93,353,222.65,353Z"/><path class="cls-4" d="M222.65,353.1h0l-1.13-.23a4.48,4.48,0,0,0-1.86,0l-1.14.23c-.26,0-.48-.19-.6-.54l-.51-1.84c-.06-.26.13-.38.35-.46a9.83,9.83,0,0,1,2.82-.56,9.33,9.33,0,0,1,2.84.56c.21.08.42.19.35.46l-.51,1.84C223.13,352.92,222.92,353.1,222.65,353.1Zm-2.07-.45a4.47,4.47,0,0,1,1,.1l1.12.23c.26,0,.4-.25.47-.46l.51-1.83c0-.14,0-.22-.27-.32a9.92,9.92,0,0,0-2.8-.54,9.54,9.54,0,0,0-2.77.55c-.24.09-.31.17-.28.31l.52,1.83c.05.17.19.45.47.46l1.11-.23A4.47,4.47,0,0,1,220.58,352.65Z"/><circle class="cls-3" cx="221.17" cy="351.19" r="0.77"/><polygon class="cls-6" points="221.69 351.06 221.29 351.06 221.29 350.67 221.04 350.67 221.04 351.06 220.64 351.06 220.64 351.32 221.04 351.32 221.04 351.72 221.29 351.72 221.29 351.32 221.69 351.32 221.69 351.06"/><rect class="cls-18" x="208.58" y="375.27" width="11.38" height="8.04" rx="0.24" transform="translate(-179.38 192.7) rotate(-35.18)"/><path class="cls-7" d="M210,382.41a1.73,1.73,0,0,0,1.22,2.1l.37.1a1.72,1.72,0,0,0,2.1-1.22L217,372.57l-3.67-1Z"/><path class="cls-7" d="M163.44,383.25l-.32.21a1.72,1.72,0,0,1-2.37-.47L153,370.27a1.71,1.71,0,0,1,.48-2.37l.32-.21a1.7,1.7,0,0,1,2.36.47l7.72,12.73A1.7,1.7,0,0,1,163.44,383.25Z"/><rect class="cls-18" x="154.2" y="372.4" width="11.32" height="7.99" rx="0.24" transform="translate(-187.64 160.83) rotate(-35.18)"/><rect class="cls-7" x="156.49" y="388.35" width="3.79" height="23.28" rx="1.7" transform="translate(-71.5 36.35) rotate(-10.7)"/><rect class="cls-7" x="149.9" y="388.19" width="3.79" height="23.28" rx="1.7"/><ellipse class="cls-7" cx="155.56" cy="357.84" rx="4.08" ry="4.79"/><path class="cls-8" d="M148.71,357.08c-.3-1.4,2.08-1.51,3-1.49a.25.25,0,0,0,.24-.34,3.66,3.66,0,0,0-3.17-2.57,3.52,3.52,0,0,0-3,2.24c-.63,1.29-.09,2.71.26,4.1.17.7.68,2.72-.38,3.12a.25.25,0,0,0,0,.47C150.86,364.68,148.83,357.66,148.71,357.08Z"/><path class="cls-8" d="M151.66,359.49H152c.43,0,.8-2.31.91-2.71h0a1.76,1.76,0,0,1,1.71-1.31h3c1.34,0,1.82-1.32,2-2.25a.75.75,0,0,0-.74-.89h-4.8a3.14,3.14,0,0,0-3,2.74S150.87,359.49,151.66,359.49Z"/><circle class="cls-12" cx="151.48" cy="359.49" r="0.64"/><path class="cls-2" d="M154.4,364.34h-.08c-3.3,0-6,4.74-6,10.6v20.2c0,.69.32,1.26.71,1.26h10.62c.39,0,.71-.57.71-1.26v-20.2C160.38,369.08,157.7,364.34,154.4,364.34Z"/><path class="cls-7" d="M145.17,383a1.7,1.7,0,0,0,1.2,2.09l.38.1a1.7,1.7,0,0,0,2.08-1.21l3.35-10.76-3.64-1Z"/><path class="cls-12" d="M149.9,409.61v.15a1.7,1.7,0,0,0,1.7,1.7H152a1.7,1.7,0,0,0,1.7-1.7v-.15Z"/><path class="cls-12" d="M158.35,410l0,.14a1.7,1.7,0,0,0,2,1.36l.37-.07a1.7,1.7,0,0,0,1.36-2l0-.14Z"/><path class="cls-6" d="M157.77,354.31l-1.11-.23a4.58,4.58,0,0,0-1.88,0l-1.12.23c-.28,0-.45-.25-.53-.5l-.51-1.82c-.05-.2.08-.3.31-.39a9.63,9.63,0,0,1,2.77-.55,9.42,9.42,0,0,1,2.81.55c.22.09.35.19.31.39l-.51,1.82C158.22,354.07,158.05,354.31,157.77,354.31Z"/><path class="cls-4" d="M157.77,354.37h0l-1.12-.23a4.44,4.44,0,0,0-1.85,0l-1.13.23c-.26,0-.48-.19-.6-.54l-.51-1.82c-.06-.26.14-.38.35-.47a9.85,9.85,0,0,1,2.8-.55,9.45,9.45,0,0,1,2.83.55c.2.08.41.2.35.46l-.51,1.83C158.25,354.19,158,354.37,157.77,354.37Zm-2.05-.45a4.38,4.38,0,0,1,.95.1l1.11.23c.26,0,.4-.25.47-.46l.51-1.82c0-.14,0-.21-.28-.31a9.11,9.11,0,0,0-2.78-.55,9.42,9.42,0,0,0-2.75.55c-.23.09-.3.18-.27.31l.51,1.82c.05.17.19.45.46.46l1.11-.23A4.47,4.47,0,0,1,155.72,353.92Z"/><circle class="cls-3" cx="156.3" cy="352.47" r="0.77"/><polygon class="cls-6" points="156.82 352.34 156.43 352.34 156.43 351.95 156.17 351.95 156.17 352.34 155.78 352.34 155.78 352.6 156.17 352.6 156.17 352.99 156.43 352.99 156.43 352.6 156.82 352.6 156.82 352.34"/><rect class="cls-6" x="153.9" y="370.99" width="2.86" height="0.74"/><path class="cls-7" d="M201.72,391l-.43.29a2.29,2.29,0,0,1-3.17-.64l-10.37-17.09a2.29,2.29,0,0,1,.63-3.17l.43-.29a2.3,2.3,0,0,1,3.18.64l10.37,17.09A2.29,2.29,0,0,1,201.72,391Z"/><rect class="cls-7" x="192.4" y="397.87" width="5.09" height="31.27" rx="2.29" transform="translate(-73.37 43.38) rotate(-10.7)"/><rect class="cls-7" x="183.51" y="397.61" width="5.09" height="31.27" rx="2.29"/><ellipse class="cls-7" cx="191.14" cy="356.87" rx="5.48" ry="6.43"/><path class="cls-3" d="M181.94,355.86c-.4-1.89,2.79-2,4.05-2a.33.33,0,0,0,.31-.45c-.84-2.06-2.42-3.45-4.25-3.45a4.72,4.72,0,0,0-4.06,3c-.84,1.74-.12,3.63.35,5.51.23.94.92,3.65-.5,4.19a.34.34,0,0,0,0,.63C184.83,366.07,182.1,356.63,181.94,355.86Z"/><path class="cls-3" d="M185.9,359.1h.43c.56,0,1.06-3.1,1.21-3.65h0a2.39,2.39,0,0,1,2.3-1.76h4.1c1.8,0,2.44-1.77,2.66-3a1,1,0,0,0-1-1.2h-6.44a4.2,4.2,0,0,0-4.08,3.69S184.84,359.1,185.9,359.1Z"/><circle class="cls-2" cx="185.66" cy="359.1" r="0.86"/><path class="cls-2" d="M189.58,365.61h-.1c-4.44,0-8,6.37-8,14.24V407c0,.93.43,1.69,1,1.69h14.26c.53,0,1-.76,1-1.69V379.85C197.62,372,194,365.61,189.58,365.61Z"/><path class="cls-12" d="M183.51,426.4v.19a2.28,2.28,0,0,0,2.29,2.29h.51a2.28,2.28,0,0,0,2.29-2.29v-.19Z"/><path class="cls-12" d="M194.88,426.91l0,.19a2.28,2.28,0,0,0,2.67,1.82l.51-.09a2.28,2.28,0,0,0,1.82-2.67l0-.2Z"/><path class="cls-6" d="M194.32,352l-1.5-.31a6,6,0,0,0-2.52,0l-1.5.31c-.38,0-.61-.33-.72-.67l-.69-2.45c-.06-.27.12-.4.42-.52a13.07,13.07,0,0,1,3.73-.74,12.67,12.67,0,0,1,3.77.74c.3.12.48.25.42.52l-.69,2.45C194.92,351.63,194.7,352,194.32,352Z"/><path class="cls-4" d="M194.32,352h0l-1.5-.31a6.14,6.14,0,0,0-2.49,0l-1.51.31c-.36,0-.65-.26-.8-.73l-.69-2.45c-.08-.35.18-.5.47-.62a13.06,13.06,0,0,1,3.76-.75,12.67,12.67,0,0,1,3.8.75c.27.11.55.26.47.62l-.69,2.45C195,351.78,194.68,352,194.32,352Zm-2.76-.61a7,7,0,0,1,1.28.13l1.49.31c.35,0,.53-.33.63-.61l.68-2.44c.05-.19,0-.29-.36-.42a12.45,12.45,0,0,0-3.74-.74,12.84,12.84,0,0,0-3.7.74c-.31.12-.41.24-.36.42l.68,2.44c.07.23.26.61.63.61l1.49-.31A6.86,6.86,0,0,1,191.56,351.42Z"/><circle class="cls-3" cx="192.34" cy="349.48" r="1.03"/><polygon class="cls-6" points="193.04 349.31 192.51 349.31 192.51 348.77 192.17 348.77 192.17 349.31 191.64 349.31 191.64 349.65 192.17 349.65 192.17 350.18 192.51 350.18 192.51 349.65 193.04 349.65 193.04 349.31"/><path class="cls-7" d="M177.06,391.7a2.29,2.29,0,0,0,1.62,2.8l.5.13A2.29,2.29,0,0,0,182,393l4.5-14.44-4.89-1.4Z"/><rect class="cls-6" x="188.63" y="374.54" width="3.84" height="0.99"/><rect class="cls-18" x="190.21" y="378.8" width="15.2" height="10.74" rx="0.33" transform="matrix(0.82, -0.58, 0.58, 0.82, -185.19, 184.11)"/><path class="cls-4" d="M192.43,384.81l.75-.54L195,386.9a3.06,3.06,0,0,1,.52,1,1,1,0,0,1,0,.63,1.15,1.15,0,0,1-.45.54,1.66,1.66,0,0,1-1.51.21l.18-.89a1.74,1.74,0,0,0,.5.06.67.67,0,0,0,.3-.11.22.22,0,0,0,.1-.23,1.27,1.27,0,0,0-.25-.49Z"/><path class="cls-4" d="M195.88,382.22a2.4,2.4,0,0,1,1.88-.41,2.47,2.47,0,0,1,1.65,1.06,2.43,2.43,0,0,1,.43,1.88,2.37,2.37,0,0,1-1,1.62,2.42,2.42,0,0,1-1.92.43,2.48,2.48,0,0,1-1.62-1.05,2.52,2.52,0,0,1-.24-2.52A2.5,2.5,0,0,1,195.88,382.22Zm.51.74a1.53,1.53,0,0,0-.65,1,1.6,1.6,0,0,0,.31,1.23,1.57,1.57,0,0,0,2.25.41,1.48,1.48,0,0,0,.64-1,1.59,1.59,0,0,0-.29-1.22,1.61,1.61,0,0,0-1.06-.69A1.56,1.56,0,0,0,196.39,383Z"/><path class="cls-4" d="M201.5,384.33l-2.79-4,.62-.43a3.9,3.9,0,0,1,.85-.49,1.26,1.26,0,0,1,.81-.05,1.1,1.1,0,0,1,.63.45,1.12,1.12,0,0,1,.2.48,1.31,1.31,0,0,1-.07.57,1.51,1.51,0,0,1,.83.05,1.34,1.34,0,0,1,.59.48,1.39,1.39,0,0,1,.25.73,1.34,1.34,0,0,1-.15.72,2.17,2.17,0,0,1-.66.67ZM200,380.56l.59.84.16-.12a.7.7,0,0,0,.33-.4.45.45,0,0,0-.09-.41.41.41,0,0,0-.33-.21.71.71,0,0,0-.46.16Zm1.06,1.51.72,1,.19-.13a1.54,1.54,0,0,0,.55-.56.51.51,0,0,0-.08-.46.6.6,0,0,0-.48-.27,1.28,1.28,0,0,0-.74.3Z"/></g></svg>