<svg xmlns="http://www.w3.org/2000/svg" width="50" height="50.806" viewBox="0 0 50 50.806">
  <path id="Icon_awesome-power-off" data-name="Icon awesome-power-off" d="M40.079,5.454a25,25,0,1,1-29.052.01,2.427,2.427,0,0,1,3.528.776l1.593,2.833a2.418,2.418,0,0,1-.665,3.125,16.934,16.934,0,1,0,20.151-.01,2.4,2.4,0,0,1-.655-3.115L36.571,6.24a2.416,2.416,0,0,1,3.508-.786ZM29.595,26.613V2.419A2.414,2.414,0,0,0,27.175,0H23.95A2.414,2.414,0,0,0,21.53,2.419V26.613a2.414,2.414,0,0,0,2.419,2.419h3.226A2.414,2.414,0,0,0,29.595,26.613Z" transform="translate(-0.563)" fill="#fff"/>
</svg>
