<svg xmlns="http://www.w3.org/2000/svg" width="50" height="50.013" viewBox="0 0 50 50.013">
  <path id="Icon_ionic-ios-settings" data-name="Icon ionic-ios-settings" d="M50.372,29.5a6.434,6.434,0,0,1,4.128-6,25.5,25.5,0,0,0-3.086-7.435,6.52,6.52,0,0,1-2.617.56,6.42,6.42,0,0,1-5.872-9.036A25.426,25.426,0,0,0,35.5,4.5,6.428,6.428,0,0,1,23.5,4.5a25.5,25.5,0,0,0-7.435,3.086,6.42,6.42,0,0,1-5.872,9.036,6.308,6.308,0,0,1-2.617-.56A26.067,26.067,0,0,0,4.5,23.51a6.432,6.432,0,0,1,.013,12.005A25.5,25.5,0,0,0,7.6,42.951a6.422,6.422,0,0,1,8.477,8.477,25.652,25.652,0,0,0,7.435,3.086,6.417,6.417,0,0,1,11.979,0,25.5,25.5,0,0,0,7.435-3.086A6.429,6.429,0,0,1,51.4,42.951a25.652,25.652,0,0,0,3.086-7.435A6.465,6.465,0,0,1,50.372,29.5ZM29.617,39.9A10.417,10.417,0,1,1,40.034,29.487,10.414,10.414,0,0,1,29.617,39.9Z" transform="translate(-4.5 -4.5)" fill="#fff"/>
</svg>
