<svg id="Group_32" data-name="Group 32" xmlns="http://www.w3.org/2000/svg" xmlns:xlink="http://www.w3.org/1999/xlink" width="276.156" height="67.603" viewBox="0 0 276.156 67.603">
  <defs>
    <clipPath id="clip-path">
      <rect id="Rectangle_39" data-name="Rectangle 39" width="276.156" height="67.603" fill="#fff"/>
    </clipPath>
  </defs>
  <g id="Group_31" data-name="Group 31" clip-path="url(#clip-path)">
    <path id="Path_138" data-name="Path 138" d="M0,5.42H12.981q10.663,0,15.187,1.9a15.564,15.564,0,0,1,7.277,6.323A19.369,19.369,0,0,1,38.2,24.1a17.819,17.819,0,0,1-3.041,10.611,18.455,18.455,0,0,1-9.166,6.454L41.24,69.785H27.847L13.373,42.525H12.252v27.26H0ZM12.252,30.58h3.839q5.844,0,8.047-1.536t2.2-5.093a6.233,6.233,0,0,0-1.091-3.665,6.049,6.049,0,0,0-2.923-2.239,22.129,22.129,0,0,0-6.717-.681H12.252Z" transform="translate(0 -3.801)" fill="#fff"/>
    <path id="Path_139" data-name="Path 139" d="M159.387,5.42h35.136V17.409H171.551V29.048h22.972v11.77H171.551V57.752h22.972V69.785H159.387Z" transform="translate(-111.777 -3.801)" fill="#fff"/>
    <path id="Path_140" data-name="Path 140" d="M323.979,10.37l-9.074,8.007q-4.779-6.651-9.731-6.651a5.921,5.921,0,0,0-3.945,1.291,3.759,3.759,0,0,0-1.534,2.91,4.979,4.979,0,0,0,1.1,3.063q1.49,1.926,8.985,8.27,7.013,5.864,8.5,7.395a25.661,25.661,0,0,1,5.281,7.2,17.976,17.976,0,0,1,1.556,7.5,17.208,17.208,0,0,1-5.476,13.083q-5.476,5.163-14.28,5.163a21.245,21.245,0,0,1-11.98-3.369q-5.1-3.369-8.739-10.589l10.3-6.213q4.646,8.532,10.693,8.532a7.874,7.874,0,0,0,5.3-1.838,5.466,5.466,0,0,0,2.147-4.244,7.328,7.328,0,0,0-1.622-4.376,46.842,46.842,0,0,0-7.144-6.695Q293.8,30.236,290.73,25.575a16.811,16.811,0,0,1-3.068-9.3,15.2,15.2,0,0,1,5.1-11.486A17.7,17.7,0,0,1,305.36,0a19.872,19.872,0,0,1,9.178,2.232q4.358,2.231,9.441,8.139" transform="translate(-199.619 0)" fill="#fff"/>
    <path id="Path_141" data-name="Path 141" d="M470.141,0a31.966,31.966,0,0,1,23.49,9.889A32.911,32.911,0,0,1,503.46,34a32.54,32.54,0,0,1-9.7,23.847A31.944,31.944,0,0,1,470.228,67.6q-14.493,0-24.081-10.02a33.253,33.253,0,0,1-9.589-23.8A33.386,33.386,0,0,1,441.024,16.8,33.694,33.694,0,0,1,470.141,0" transform="translate(-306.156)" fill="#fff"/>
    <path id="Path_142" data-name="Path 142" d="M681.942,5.42h11.937L708.8,50.313,723.855,5.42h11.93l10.8,64.365H734.735l-6.9-40.649L714.159,69.785h-10.8L689.81,29.136l-7.066,40.649H670.8Z" transform="translate(-470.427 -3.801)" fill="#fff"/>
  </g>
</svg>
